{"title":"DJ Khaled Ft. Drake, Rick Ross &amp; Lil Wayne - No New Friends ","uid":8893136,"size":80686363,"categoryP":"video","categoryS":"music_videos","magnet":"?xt=urn:btih:ad3c2a6b870ef5f3afb8c109bd1c5db759ee7e22&amp;dn=DJ+Khaled+Ft.+Drake%2C+Rick+Ross+%26amp%3B+Lil+Wayne+-+No+New+Friends+&amp;tr=udp%3A%2F%2Ftracker.openbittorrent.com%3A80&amp;tr=udp%3A%2F%2Fopen.demonii.com%3A1337&amp;tr=udp%3A%2F%2Ftracker.coppersurfer.tk%3A6969&amp;tr=udp%3A%2F%2Fexodus.desync.com%3A6969","seeders":4,"leechers":0,"uploader":"Sbyky","files":-1,"time":1378635038,"description":"[IMG]http://yuq.me/users/18/139/VqueTpRCod.png[/IMG]\n\nGeneral\nComplete name                            : DJ Khaled Ft. Drake, Rick Ross &amp; Lil Wayne - No New Friends [Explicit] 720p [Sbyky].MP4\nFormat                                   : MPEG-4\nFormat profile                           : Base Media / Version 2\nCodec ID                                 : mp42\nFile size                                : 76.9 MiB\nDuration                                 : 5mn 1s\nOverall bit rate mode                    : Variable\nOverall bit rate                         : 2 140 Kbps\nEncoded date                             : UTC 2013-09-01 06:46:32\nTagged date                              : UTC 2013-09-01 06:46:32\n\nVideo\nID                                       : 1\nFormat                                   : AVC\nFormat/Info                              : Advanced Video Codec\nFormat profile                           : &lt;a class=&quot;__cf_email__&quot; href=&quot;/cdn-cgi/l/email-protection&quot; data-cfemail=&quot;e7af8e808fa7abd4c9d6&quot;&gt;[email&amp;#160;protected]&lt;/a&gt;&lt;script cf-hash='f9e31' type=&quot;text/javascript&quot;&gt;\n/* &lt;![CDATA[ */!function(){try{var t=&quot;currentScript&quot;in document?document.currentScript:function(){for(var t=document.getElementsByTagName(&quot;script&quot;),e=t.length;e--;)if(t[e].getAttribute(&quot;cf-hash&quot;))return t[e]}();if(t&amp;&amp;t.previousSibling){var e,r,n,i,c=t.previousSibling,a=c.getAttribute(&quot;data-cfemail&quot;);if(a){for(e=&quot;&quot;,r=parseInt(a.substr(0,2),16),n=2;a.length-n;n+=2)i=parseInt(a.substr(n,2),16)^r,e+=String.fromCharCode(i);e=document.createTextNode(e),c.parentNode.replaceChild(e,c)}}}catch(u){}}();/* ]]&gt; */&lt;/script&gt;\nFormat settings, CABAC                   : Yes\nFormat settings, ReFrames                : 1 frame\nCodec ID                                 : avc1\nCodec ID/Info                            : Advanced Video Coding\nDuration                                 : 5mn 1s\nBit rate                                 : 1 946 Kbps\nMaximum bit rate                         : 21.9 Mbps\nWidth                                    : 1 280 pixels\nHeight                                   : 720 pixels\nDisplay aspect ratio                     : 16:9\nFrame rate mode                          : Constant\nFrame rate                               : 23.976 fps\nColor space                              : YUV\nChroma subsampling                       : 4:2:0\nBit depth                                : 8 bits\nScan type                                : Progressive\nBits/(Pixel*Frame)                       : 0.088\nStream size                              : 70.0 MiB (91%)\nTagged date                              : UTC 2013-09-01 06:46:35\n\nAudio\nID                                       : 2\nFormat                                   : AAC\nFormat/Info                              : Advanced Audio Codec\nFormat profile                           : LC\nCodec ID                                 : 40\nDuration                                 : 5mn 1s\nBit rate mode                            : Variable\nBit rate                                 : 192 Kbps\nMaximum bit rate                         : 201 Kbps\nChannel(s)                               : 2 channels\nChannel positions                        : Front: L R\nSampling rate                            : 44.1 KHz\nCompression mode                         : Lossy\nStream size                              : 6.90 MiB (9%)\nTitle                                    : IsoMedia File Produced by Google, 5-11-2011\nEncoded date                             : UTC 2013-09-01 06:46:34\nTagged date                              : UTC 2013-09-01 06:46:35\n\nShared By Sbyky\n[IMG]http://yuq.me/users/18/139/0aq32UMZvX.gif[/IMG]\n[IMG]http://yuq.me/users/18/139/bQg62viaEG.gif[/IMG]","torrent":{"xt":"urn:btih:ad3c2a6b870ef5f3afb8c109bd1c5db759ee7e22","amp;dn":"DJ+Khaled+Ft.+Drake%2C+Rick+Ross+%26amp%3B+Lil+Wayne+-+No+New+Friends+","amp;tr":["udp%3A%2F%2Ftracker.openbittorrent.com%3A80","udp%3A%2F%2Fopen.demonii.com%3A1337","udp%3A%2F%2Ftracker.coppersurfer.tk%3A6969","udp%3A%2F%2Fexodus.desync.com%3A6969"],"infoHash":"ad3c2a6b870ef5f3afb8c109bd1c5db759ee7e22","infoHashBuffer":{"type":"Buffer","data":[173,60,42,107,135,14,245,243,175,184,193,9,189,28,93,183,89,238,126,34]},"announce":[],"urlList":[]}}